G75*
%MOIN*%
%OFA0B0*%
%FSLAX24Y24*%
%IPPOS*%
%LPD*%
%AMOC8*
5,1,8,0,0,1.08239X$1,22.5*
%
%ADD10C,0.0520*%
%ADD11C,0.0554*%
%ADD12C,0.0740*%
%ADD13C,0.0160*%
%ADD14C,0.0396*%
D10*
X005180Y001180D03*
X006180Y001180D03*
X007180Y001180D03*
X008180Y001180D03*
X010680Y001180D03*
X011680Y001180D03*
X012680Y001180D03*
X013680Y001180D03*
X016180Y001180D03*
X017180Y001180D03*
X018180Y001180D03*
X019180Y001180D03*
X019180Y004180D03*
X018180Y004180D03*
X017180Y004180D03*
X016180Y004180D03*
X013680Y004180D03*
X012680Y004180D03*
X011680Y004180D03*
X010680Y004180D03*
X008180Y004180D03*
X007180Y004180D03*
X006180Y004180D03*
X005180Y004180D03*
D11*
X022680Y004770D03*
X023680Y004770D03*
X023680Y005600D03*
X022680Y005600D03*
D12*
X002180Y005180D03*
X002180Y006180D03*
X002180Y004180D03*
D13*
X000660Y000660D02*
X000660Y009570D01*
X025192Y009570D01*
X025192Y000660D01*
X000660Y000660D01*
X000660Y000814D02*
X004924Y000814D01*
X004931Y000807D02*
X005092Y000740D01*
X005268Y000740D01*
X005429Y000807D01*
X005553Y000931D01*
X005620Y001092D01*
X005620Y001268D01*
X005553Y001429D01*
X005429Y001553D01*
X005268Y001620D01*
X005092Y001620D01*
X004931Y001553D01*
X004807Y001429D01*
X004740Y001268D01*
X004740Y001092D01*
X004807Y000931D01*
X004931Y000807D01*
X004790Y000973D02*
X000660Y000973D01*
X000660Y001131D02*
X004740Y001131D01*
X004749Y001290D02*
X000660Y001290D01*
X000660Y001448D02*
X004826Y001448D01*
X005060Y001607D02*
X000660Y001607D01*
X000660Y001765D02*
X006227Y001765D01*
X006069Y001924D02*
X000660Y001924D01*
X000660Y002082D02*
X005910Y002082D01*
X005752Y002241D02*
X000660Y002241D01*
X000660Y002399D02*
X005593Y002399D01*
X005460Y002533D02*
X006740Y001252D01*
X006740Y001092D01*
X006807Y000931D01*
X006931Y000807D01*
X007092Y000740D01*
X007268Y000740D01*
X007429Y000807D01*
X007553Y000931D01*
X007620Y001092D01*
X007620Y001268D01*
X007553Y001429D01*
X007429Y001553D01*
X007268Y001620D01*
X007108Y001620D01*
X005940Y002788D01*
X005940Y003803D01*
X006092Y003740D01*
X006268Y003740D01*
X006429Y003807D01*
X006553Y003931D01*
X006620Y004092D01*
X006620Y004268D01*
X006553Y004429D01*
X006429Y004553D01*
X006268Y004620D01*
X006092Y004620D01*
X005940Y004557D01*
X005940Y006572D01*
X006670Y007302D01*
X006755Y007302D01*
X006894Y007359D01*
X007001Y007466D01*
X007058Y007605D01*
X007058Y007755D01*
X007001Y007894D01*
X006894Y008001D01*
X006755Y008058D01*
X006605Y008058D01*
X006466Y008001D01*
X006359Y007894D01*
X006302Y007755D01*
X006302Y007670D01*
X005460Y006827D01*
X005420Y006732D01*
X005420Y004557D01*
X005268Y004620D01*
X005092Y004620D01*
X004931Y004553D01*
X004807Y004429D01*
X004740Y004268D01*
X004740Y004092D01*
X004807Y003931D01*
X004931Y003807D01*
X005092Y003740D01*
X005268Y003740D01*
X005420Y003803D01*
X005420Y002628D01*
X005460Y002533D01*
X005449Y002558D02*
X000660Y002558D01*
X000660Y002716D02*
X005420Y002716D01*
X005420Y002875D02*
X000660Y002875D01*
X000660Y003033D02*
X005420Y003033D01*
X005420Y003192D02*
X000660Y003192D01*
X000660Y003350D02*
X005420Y003350D01*
X005420Y003509D02*
X000660Y003509D01*
X000660Y003667D02*
X001981Y003667D01*
X002071Y003630D02*
X001868Y003714D01*
X001714Y003868D01*
X001630Y004071D01*
X001630Y004289D01*
X001714Y004492D01*
X001868Y004646D01*
X001950Y004680D01*
X001892Y004710D01*
X001822Y004760D01*
X001760Y004822D01*
X001710Y004892D01*
X001670Y004969D01*
X001644Y005051D01*
X001630Y005137D01*
X001630Y005160D01*
X002160Y005160D01*
X002160Y005200D01*
X001630Y005200D01*
X001630Y005223D01*
X001644Y005309D01*
X001670Y005391D01*
X001710Y005468D01*
X001760Y005538D01*
X001822Y005600D01*
X001892Y005650D01*
X001950Y005680D01*
X001868Y005714D01*
X001714Y005868D01*
X001630Y006071D01*
X001630Y006289D01*
X001714Y006492D01*
X001868Y006646D01*
X001920Y006668D01*
X001920Y008732D01*
X001960Y008827D01*
X002460Y009327D01*
X002533Y009400D01*
X002628Y009440D01*
X015732Y009440D01*
X015827Y009400D01*
X016670Y008558D01*
X016755Y008558D01*
X016894Y008501D01*
X017001Y008394D01*
X017058Y008255D01*
X017058Y008105D01*
X025192Y008105D01*
X025192Y008264D02*
X017055Y008264D01*
X017058Y008105D02*
X017001Y007966D01*
X016894Y007859D01*
X016755Y007802D01*
X016605Y007802D01*
X016466Y007859D01*
X016359Y007966D01*
X016302Y008105D01*
X002440Y008105D01*
X002440Y008264D02*
X016229Y008264D01*
X016302Y008190D02*
X016302Y008105D01*
X016302Y008190D02*
X015572Y008920D01*
X002788Y008920D01*
X002440Y008572D01*
X002440Y006668D01*
X002492Y006646D01*
X002646Y006492D01*
X002730Y006289D01*
X002730Y006071D01*
X002646Y005868D01*
X002492Y005714D01*
X002410Y005680D01*
X002468Y005650D01*
X002538Y005600D01*
X002600Y005538D01*
X002650Y005468D01*
X002690Y005391D01*
X002716Y005309D01*
X002730Y005223D01*
X002730Y005200D01*
X002200Y005200D01*
X002200Y005160D01*
X002730Y005160D01*
X002730Y005137D01*
X002716Y005051D01*
X002690Y004969D01*
X002650Y004892D01*
X002600Y004822D01*
X002538Y004760D01*
X002468Y004710D01*
X002410Y004680D01*
X002492Y004646D01*
X002646Y004492D01*
X002730Y004289D01*
X002730Y004071D01*
X002646Y003868D01*
X002492Y003714D01*
X002289Y003630D01*
X002071Y003630D01*
X002379Y003667D02*
X005420Y003667D01*
X005940Y003667D02*
X012299Y003667D01*
X012420Y003788D02*
X011690Y003058D01*
X011605Y003058D01*
X011466Y003001D01*
X011359Y002894D01*
X011302Y002755D01*
X011302Y002605D01*
X011359Y002466D01*
X011466Y002359D01*
X011605Y002302D01*
X011755Y002302D01*
X011894Y002359D01*
X012001Y002466D01*
X012058Y002605D01*
X012058Y002690D01*
X012827Y003460D01*
X012900Y003533D01*
X012920Y003580D01*
X012920Y002955D01*
X012859Y002894D01*
X012802Y002755D01*
X012802Y002605D01*
X012859Y002466D01*
X012966Y002359D01*
X013105Y002302D01*
X013255Y002302D01*
X013394Y002359D01*
X013501Y002466D01*
X013558Y002605D01*
X013558Y002755D01*
X013501Y002894D01*
X013440Y002955D01*
X013440Y003803D01*
X013592Y003740D01*
X013768Y003740D01*
X013929Y003807D01*
X014053Y003931D01*
X014120Y004092D01*
X014120Y004268D01*
X014053Y004429D01*
X013929Y004553D01*
X013768Y004620D01*
X013592Y004620D01*
X013558Y004606D01*
X013558Y004755D01*
X013501Y004894D01*
X013394Y005001D01*
X013255Y005058D01*
X013105Y005058D01*
X012966Y005001D01*
X012940Y004975D01*
X012940Y005905D01*
X013001Y005966D01*
X013058Y006105D01*
X013058Y006255D01*
X013001Y006394D01*
X012975Y006420D01*
X019405Y006420D01*
X019466Y006359D01*
X019605Y006302D01*
X019755Y006302D01*
X019894Y006359D01*
X020001Y006466D01*
X020058Y006605D01*
X020058Y006755D01*
X020001Y006894D01*
X019975Y006920D01*
X020905Y006920D01*
X020966Y006859D01*
X021105Y006802D01*
X021255Y006802D01*
X021394Y006859D01*
X021501Y006966D01*
X021558Y007105D01*
X021558Y007255D01*
X021501Y007394D01*
X021394Y007501D01*
X021255Y007558D01*
X021105Y007558D01*
X020966Y007501D01*
X020905Y007440D01*
X008955Y007440D01*
X008894Y007501D01*
X008755Y007558D01*
X008605Y007558D01*
X008466Y007501D01*
X008359Y007394D01*
X008302Y007255D01*
X008302Y007105D01*
X008359Y006966D01*
X008395Y006930D01*
X008359Y006894D01*
X008302Y006755D01*
X008302Y006605D01*
X008359Y006466D01*
X008466Y006359D01*
X008605Y006302D01*
X008755Y006302D01*
X008894Y006359D01*
X008955Y006420D01*
X012385Y006420D01*
X012359Y006394D01*
X012302Y006255D01*
X012302Y006105D01*
X012359Y005966D01*
X012420Y005905D01*
X012420Y004542D01*
X012307Y004429D01*
X012240Y004268D01*
X012240Y004092D01*
X012307Y003931D01*
X012420Y003818D01*
X012420Y003788D01*
X012412Y003826D02*
X011948Y003826D01*
X011929Y003807D02*
X012053Y003931D01*
X012120Y004092D01*
X012120Y004268D01*
X012053Y004429D01*
X011929Y004553D01*
X011768Y004620D01*
X011592Y004620D01*
X011431Y004553D01*
X011307Y004429D01*
X011240Y004268D01*
X011240Y004092D01*
X011307Y003931D01*
X011431Y003807D01*
X011592Y003740D01*
X011768Y003740D01*
X011929Y003807D01*
X012075Y003984D02*
X012285Y003984D01*
X012240Y004143D02*
X012120Y004143D01*
X012106Y004301D02*
X012254Y004301D01*
X012337Y004460D02*
X012023Y004460D01*
X011772Y004618D02*
X012420Y004618D01*
X012420Y004777D02*
X007940Y004777D01*
X007940Y004935D02*
X012420Y004935D01*
X012420Y005094D02*
X007940Y005094D01*
X007940Y005252D02*
X012420Y005252D01*
X012420Y005411D02*
X007945Y005411D01*
X007940Y005405D02*
X008001Y005466D01*
X008058Y005605D01*
X008058Y005755D01*
X008001Y005894D01*
X007894Y006001D01*
X007755Y006058D01*
X007605Y006058D01*
X007466Y006001D01*
X007359Y005894D01*
X007302Y005755D01*
X007302Y005605D01*
X007359Y005466D01*
X007420Y005405D01*
X007420Y004788D01*
X007252Y004620D01*
X007092Y004620D01*
X006931Y004553D01*
X006807Y004429D01*
X006740Y004268D01*
X006740Y004092D01*
X006807Y003931D01*
X006931Y003807D01*
X007092Y003740D01*
X007268Y003740D01*
X007429Y003807D01*
X007553Y003931D01*
X007620Y004092D01*
X007620Y004252D01*
X007900Y004533D01*
X007940Y004628D01*
X007940Y005405D01*
X008043Y005569D02*
X012420Y005569D01*
X012420Y005728D02*
X008058Y005728D01*
X008004Y005886D02*
X012420Y005886D01*
X012327Y006045D02*
X007788Y006045D01*
X007572Y006045D02*
X005940Y006045D01*
X005940Y006203D02*
X012302Y006203D01*
X012346Y006362D02*
X008896Y006362D01*
X008464Y006362D02*
X005940Y006362D01*
X005940Y006520D02*
X008337Y006520D01*
X008302Y006679D02*
X006046Y006679D01*
X006205Y006837D02*
X008336Y006837D01*
X008680Y006680D02*
X019680Y006680D01*
X020058Y006679D02*
X025192Y006679D01*
X025192Y006837D02*
X021340Y006837D01*
X021020Y006837D02*
X020024Y006837D01*
X020023Y006520D02*
X025192Y006520D01*
X025192Y006362D02*
X019896Y006362D01*
X019464Y006362D02*
X013014Y006362D01*
X013058Y006203D02*
X025192Y006203D01*
X025192Y006045D02*
X023801Y006045D01*
X023771Y006057D02*
X023939Y005988D01*
X024068Y005859D01*
X024137Y005691D01*
X024137Y005509D01*
X024068Y005341D01*
X023939Y005212D01*
X023873Y005185D01*
X023939Y005158D01*
X024068Y005029D01*
X024137Y004861D01*
X024137Y004679D01*
X024068Y004511D01*
X023939Y004382D01*
X023771Y004313D01*
X023589Y004313D01*
X023421Y004382D01*
X023292Y004511D01*
X023223Y004679D01*
X023223Y004861D01*
X023292Y005029D01*
X023421Y005158D01*
X023487Y005185D01*
X023421Y005212D01*
X023292Y005341D01*
X023223Y005509D01*
X023223Y005691D01*
X023292Y005859D01*
X023421Y005988D01*
X023589Y006057D01*
X023771Y006057D01*
X023559Y006045D02*
X022791Y006045D01*
X022787Y006046D02*
X022716Y006057D01*
X022689Y006057D01*
X022689Y005609D01*
X022671Y005609D01*
X022671Y006057D01*
X022644Y006057D01*
X022573Y006046D01*
X022505Y006024D01*
X022440Y005991D01*
X022382Y005949D01*
X022331Y005898D01*
X022289Y005840D01*
X022256Y005775D01*
X022234Y005707D01*
X022223Y005636D01*
X022223Y005609D01*
X022671Y005609D01*
X022671Y005591D01*
X022223Y005591D01*
X022223Y005564D01*
X022234Y005493D01*
X022256Y005425D01*
X022289Y005360D01*
X022331Y005302D01*
X022382Y005251D01*
X022440Y005209D01*
X022487Y005185D01*
X022440Y005161D01*
X022382Y005119D01*
X022331Y005068D01*
X022289Y005010D01*
X022256Y004945D01*
X022234Y004877D01*
X022223Y004806D01*
X022223Y004779D01*
X022671Y004779D01*
X022671Y005227D01*
X022671Y005591D01*
X022689Y005591D01*
X022689Y005609D01*
X023137Y005609D01*
X023137Y005636D01*
X023126Y005707D01*
X023104Y005775D01*
X023071Y005840D01*
X023029Y005898D01*
X022978Y005949D01*
X022920Y005991D01*
X022855Y006024D01*
X022787Y006046D01*
X022689Y006045D02*
X022671Y006045D01*
X022569Y006045D02*
X017288Y006045D01*
X017255Y006058D02*
X017105Y006058D01*
X016966Y006001D01*
X016859Y005894D01*
X016802Y005755D01*
X016802Y005605D01*
X016859Y005466D01*
X016966Y005359D01*
X017105Y005302D01*
X017190Y005302D01*
X017920Y004572D01*
X017920Y004542D01*
X017807Y004429D01*
X017740Y004268D01*
X017740Y004092D01*
X017807Y003931D01*
X017931Y003807D01*
X018092Y003740D01*
X018268Y003740D01*
X018429Y003807D01*
X018553Y003931D01*
X018620Y004092D01*
X018620Y004268D01*
X018553Y004429D01*
X018440Y004542D01*
X018440Y004732D01*
X018400Y004827D01*
X018327Y004900D01*
X017558Y005670D01*
X017558Y005755D01*
X017501Y005894D01*
X017394Y006001D01*
X017255Y006058D01*
X017072Y006045D02*
X013033Y006045D01*
X012680Y006180D02*
X012680Y004180D01*
X012680Y003680D01*
X011680Y002680D01*
X012039Y002558D02*
X012821Y002558D01*
X012926Y002399D02*
X011934Y002399D01*
X011426Y002399D02*
X006329Y002399D01*
X006170Y002558D02*
X011321Y002558D01*
X011302Y002716D02*
X006012Y002716D01*
X005940Y002875D02*
X011351Y002875D01*
X011544Y003033D02*
X005940Y003033D01*
X005940Y003192D02*
X011824Y003192D01*
X011982Y003350D02*
X005940Y003350D01*
X005940Y003509D02*
X012141Y003509D01*
X012559Y003192D02*
X012920Y003192D01*
X012920Y003033D02*
X012401Y003033D01*
X012242Y002875D02*
X012851Y002875D01*
X012802Y002716D02*
X012084Y002716D01*
X013180Y002680D02*
X013180Y004680D01*
X013460Y004935D02*
X017557Y004935D01*
X017716Y004777D02*
X013549Y004777D01*
X013558Y004618D02*
X013588Y004618D01*
X013772Y004618D02*
X016088Y004618D01*
X016092Y004620D02*
X015931Y004553D01*
X015807Y004429D01*
X015740Y004268D01*
X015740Y004092D01*
X015807Y003931D01*
X015931Y003807D01*
X016092Y003740D01*
X016268Y003740D01*
X016429Y003807D01*
X016553Y003931D01*
X016620Y004092D01*
X016620Y004268D01*
X016553Y004429D01*
X016429Y004553D01*
X016268Y004620D01*
X016092Y004620D01*
X016272Y004618D02*
X017088Y004618D01*
X017092Y004620D02*
X016931Y004553D01*
X016807Y004429D01*
X016740Y004268D01*
X016740Y004092D01*
X016807Y003931D01*
X016931Y003807D01*
X017092Y003740D01*
X017268Y003740D01*
X017429Y003807D01*
X017553Y003931D01*
X017620Y004092D01*
X017620Y004268D01*
X017553Y004429D01*
X017429Y004553D01*
X017268Y004620D01*
X017092Y004620D01*
X017272Y004618D02*
X017874Y004618D01*
X017837Y004460D02*
X017523Y004460D01*
X017606Y004301D02*
X017754Y004301D01*
X017740Y004143D02*
X017620Y004143D01*
X017575Y003984D02*
X017785Y003984D01*
X017912Y003826D02*
X017448Y003826D01*
X016912Y003826D02*
X016448Y003826D01*
X016061Y003667D02*
X025192Y003667D01*
X025192Y003826D02*
X019448Y003826D01*
X019429Y003807D02*
X019553Y003931D01*
X019620Y004092D01*
X019620Y004268D01*
X019553Y004429D01*
X019429Y004553D01*
X019268Y004620D01*
X019092Y004620D01*
X018931Y004553D01*
X018807Y004429D01*
X018740Y004268D01*
X018740Y004092D01*
X018807Y003931D01*
X018931Y003807D01*
X019092Y003740D01*
X019268Y003740D01*
X019429Y003807D01*
X019575Y003984D02*
X025192Y003984D01*
X025192Y004143D02*
X019620Y004143D01*
X019606Y004301D02*
X025192Y004301D01*
X025192Y004460D02*
X024016Y004460D01*
X024112Y004618D02*
X025192Y004618D01*
X025192Y004777D02*
X024137Y004777D01*
X024106Y004935D02*
X025192Y004935D01*
X025192Y005094D02*
X024003Y005094D01*
X023979Y005252D02*
X025192Y005252D01*
X025192Y005411D02*
X024096Y005411D01*
X024137Y005569D02*
X025192Y005569D01*
X025192Y005728D02*
X024122Y005728D01*
X024041Y005886D02*
X025192Y005886D01*
X023319Y005886D02*
X023037Y005886D01*
X023119Y005728D02*
X023238Y005728D01*
X023223Y005569D02*
X023137Y005569D01*
X023137Y005564D02*
X023137Y005591D01*
X022689Y005591D01*
X022689Y004779D01*
X023137Y004779D01*
X023137Y004806D01*
X023126Y004877D01*
X023104Y004945D01*
X023071Y005010D01*
X023029Y005068D01*
X022978Y005119D01*
X022920Y005161D01*
X022873Y005185D01*
X022920Y005209D01*
X022978Y005251D01*
X023029Y005302D01*
X023071Y005360D01*
X023104Y005425D01*
X023126Y005493D01*
X023137Y005564D01*
X023097Y005411D02*
X023264Y005411D01*
X023381Y005252D02*
X022979Y005252D01*
X023003Y005094D02*
X023357Y005094D01*
X023254Y004935D02*
X023107Y004935D01*
X023223Y004777D02*
X022689Y004777D01*
X022689Y004779D02*
X022689Y004761D01*
X023137Y004761D01*
X023137Y004734D01*
X023126Y004663D01*
X023104Y004595D01*
X023071Y004530D01*
X023029Y004472D01*
X022978Y004421D01*
X022920Y004379D01*
X022855Y004346D01*
X022787Y004324D01*
X022716Y004313D01*
X022689Y004313D01*
X022689Y004761D01*
X022671Y004761D01*
X022223Y004761D01*
X022223Y004734D01*
X022234Y004663D01*
X022256Y004595D01*
X022289Y004530D01*
X022331Y004472D01*
X022382Y004421D01*
X022440Y004379D01*
X022505Y004346D01*
X022573Y004324D01*
X022644Y004313D01*
X022671Y004313D01*
X022671Y004761D01*
X022671Y004779D01*
X022689Y004779D01*
X022671Y004777D02*
X018421Y004777D01*
X018293Y004935D02*
X022253Y004935D01*
X022671Y004935D02*
X022689Y004935D01*
X022689Y005094D02*
X022671Y005094D01*
X022671Y005252D02*
X022689Y005252D01*
X022381Y005252D02*
X017976Y005252D01*
X018134Y005094D02*
X022357Y005094D01*
X022263Y005411D02*
X017817Y005411D01*
X017659Y005569D02*
X022223Y005569D01*
X022241Y005728D02*
X017558Y005728D01*
X017504Y005886D02*
X022323Y005886D01*
X022671Y005886D02*
X022689Y005886D01*
X022689Y005728D02*
X022671Y005728D01*
X022671Y005569D02*
X022689Y005569D01*
X022689Y005411D02*
X022671Y005411D01*
X022671Y004618D02*
X022689Y004618D01*
X022689Y004460D02*
X022671Y004460D01*
X022344Y004460D02*
X019523Y004460D01*
X019272Y004618D02*
X022249Y004618D01*
X023016Y004460D02*
X023344Y004460D01*
X023248Y004618D02*
X023111Y004618D01*
X025192Y003509D02*
X016219Y003509D01*
X016378Y003350D02*
X025192Y003350D01*
X025192Y003192D02*
X016536Y003192D01*
X016695Y003033D02*
X025192Y003033D01*
X025192Y002875D02*
X016853Y002875D01*
X017012Y002716D02*
X025192Y002716D01*
X025192Y002558D02*
X017170Y002558D01*
X017329Y002399D02*
X025192Y002399D01*
X025192Y002241D02*
X017487Y002241D01*
X017646Y002082D02*
X025192Y002082D01*
X025192Y001924D02*
X017804Y001924D01*
X017963Y001765D02*
X025192Y001765D01*
X025192Y001607D02*
X019291Y001607D01*
X019283Y001609D02*
X019215Y001620D01*
X019180Y001620D01*
X019180Y001180D01*
X019180Y001180D01*
X019620Y001180D01*
X019620Y001215D01*
X019609Y001283D01*
X019588Y001349D01*
X019556Y001411D01*
X019516Y001467D01*
X019467Y001516D01*
X019411Y001556D01*
X019349Y001588D01*
X019283Y001609D01*
X019180Y001607D02*
X019180Y001607D01*
X019180Y001620D02*
X019145Y001620D01*
X019077Y001609D01*
X019011Y001588D01*
X018949Y001556D01*
X018893Y001516D01*
X018844Y001467D01*
X018804Y001411D01*
X018772Y001349D01*
X018751Y001283D01*
X018740Y001215D01*
X018740Y001180D01*
X019180Y001180D01*
X019180Y001180D01*
X019180Y001180D01*
X019180Y001620D01*
X019069Y001607D02*
X018300Y001607D01*
X018268Y001620D02*
X018108Y001620D01*
X015558Y004170D01*
X015558Y004255D01*
X015501Y004394D01*
X015394Y004501D01*
X015255Y004558D01*
X015105Y004558D01*
X014966Y004501D01*
X014859Y004394D01*
X014802Y004255D01*
X014802Y004105D01*
X014859Y003966D01*
X014966Y003859D01*
X015105Y003802D01*
X015190Y003802D01*
X017740Y001252D01*
X017740Y001092D01*
X017807Y000931D01*
X017931Y000807D01*
X018092Y000740D01*
X018268Y000740D01*
X018429Y000807D01*
X018553Y000931D01*
X018620Y001092D01*
X018620Y001268D01*
X018553Y001429D01*
X018429Y001553D01*
X018268Y001620D01*
X018534Y001448D02*
X018831Y001448D01*
X018753Y001290D02*
X018611Y001290D01*
X018740Y001180D02*
X018740Y001145D01*
X018751Y001077D01*
X018772Y001011D01*
X018804Y000949D01*
X018844Y000893D01*
X018893Y000844D01*
X018949Y000804D01*
X019011Y000772D01*
X019077Y000751D01*
X019145Y000740D01*
X019180Y000740D01*
X019215Y000740D01*
X019283Y000751D01*
X019349Y000772D01*
X019411Y000804D01*
X019467Y000844D01*
X019516Y000893D01*
X019556Y000949D01*
X019588Y001011D01*
X019609Y001077D01*
X019620Y001145D01*
X019620Y001180D01*
X019180Y001180D01*
X019180Y000740D01*
X019180Y001180D01*
X019180Y001180D01*
X018740Y001180D01*
X018742Y001131D02*
X018620Y001131D01*
X018570Y000973D02*
X018792Y000973D01*
X018935Y000814D02*
X018436Y000814D01*
X017924Y000814D02*
X017436Y000814D01*
X017429Y000807D02*
X017553Y000931D01*
X017620Y001092D01*
X017620Y001268D01*
X017553Y001429D01*
X017429Y001553D01*
X017268Y001620D01*
X017092Y001620D01*
X016931Y001553D01*
X016807Y001429D01*
X016740Y001268D01*
X016740Y001092D01*
X016807Y000931D01*
X016931Y000807D01*
X017092Y000740D01*
X017268Y000740D01*
X017429Y000807D01*
X017570Y000973D02*
X017790Y000973D01*
X017740Y001131D02*
X017620Y001131D01*
X017611Y001290D02*
X017703Y001290D01*
X017544Y001448D02*
X017534Y001448D01*
X017386Y001607D02*
X017300Y001607D01*
X017060Y001607D02*
X016300Y001607D01*
X016268Y001620D02*
X016429Y001553D01*
X016553Y001429D01*
X016620Y001268D01*
X016620Y001092D01*
X016553Y000931D01*
X016429Y000807D01*
X016268Y000740D01*
X016092Y000740D01*
X015931Y000807D01*
X015807Y000931D01*
X015740Y001092D01*
X015740Y001268D01*
X015807Y001429D01*
X015931Y001553D01*
X016092Y001620D01*
X016268Y001620D01*
X016060Y001607D02*
X013791Y001607D01*
X013783Y001609D02*
X013715Y001620D01*
X013680Y001620D01*
X013680Y001180D01*
X013680Y001180D01*
X014120Y001180D01*
X014120Y001215D01*
X014109Y001283D01*
X014088Y001349D01*
X014056Y001411D01*
X014016Y001467D01*
X013967Y001516D01*
X013911Y001556D01*
X013849Y001588D01*
X013783Y001609D01*
X013680Y001607D02*
X013680Y001607D01*
X013680Y001620D02*
X013645Y001620D01*
X013577Y001609D01*
X013511Y001588D01*
X013449Y001556D01*
X013393Y001516D01*
X013344Y001467D01*
X013304Y001411D01*
X013272Y001349D01*
X013251Y001283D01*
X013240Y001215D01*
X013240Y001180D01*
X013680Y001180D01*
X013680Y001180D01*
X013680Y001180D01*
X013680Y001620D01*
X013569Y001607D02*
X012800Y001607D01*
X012768Y001620D02*
X012592Y001620D01*
X012431Y001553D01*
X012307Y001429D01*
X012240Y001268D01*
X012240Y001092D01*
X012307Y000931D01*
X012431Y000807D01*
X012592Y000740D01*
X012768Y000740D01*
X012929Y000807D01*
X013053Y000931D01*
X013120Y001092D01*
X013120Y001268D01*
X013053Y001429D01*
X012929Y001553D01*
X012768Y001620D01*
X012560Y001607D02*
X011800Y001607D01*
X011768Y001620D02*
X011592Y001620D01*
X011431Y001553D01*
X011307Y001429D01*
X011240Y001268D01*
X011240Y001092D01*
X011307Y000931D01*
X011431Y000807D01*
X011592Y000740D01*
X011768Y000740D01*
X011929Y000807D01*
X012053Y000931D01*
X012120Y001092D01*
X012120Y001268D01*
X012053Y001429D01*
X011929Y001553D01*
X011768Y001620D01*
X011560Y001607D02*
X010800Y001607D01*
X010768Y001620D02*
X010592Y001620D01*
X010431Y001553D01*
X010307Y001429D01*
X010240Y001268D01*
X010240Y001092D01*
X010307Y000931D01*
X010431Y000807D01*
X010592Y000740D01*
X010768Y000740D01*
X010929Y000807D01*
X011053Y000931D01*
X011120Y001092D01*
X011120Y001268D01*
X011053Y001429D01*
X010929Y001553D01*
X010768Y001620D01*
X010560Y001607D02*
X008291Y001607D01*
X008283Y001609D02*
X008215Y001620D01*
X008180Y001620D01*
X008180Y001180D01*
X008180Y001180D01*
X008620Y001180D01*
X008620Y001215D01*
X008609Y001283D01*
X008588Y001349D01*
X008556Y001411D01*
X008516Y001467D01*
X008467Y001516D01*
X008411Y001556D01*
X008349Y001588D01*
X008283Y001609D01*
X008180Y001607D02*
X008180Y001607D01*
X008180Y001620D02*
X008145Y001620D01*
X008077Y001609D01*
X008011Y001588D01*
X007949Y001556D01*
X007893Y001516D01*
X007844Y001467D01*
X007804Y001411D01*
X007772Y001349D01*
X007751Y001283D01*
X007740Y001215D01*
X007740Y001180D01*
X008180Y001180D01*
X008180Y001180D01*
X008180Y001180D01*
X008180Y001620D01*
X008069Y001607D02*
X007300Y001607D01*
X007534Y001448D02*
X007831Y001448D01*
X007753Y001290D02*
X007611Y001290D01*
X007740Y001180D02*
X007740Y001145D01*
X007751Y001077D01*
X007772Y001011D01*
X007804Y000949D01*
X007844Y000893D01*
X007893Y000844D01*
X007949Y000804D01*
X008011Y000772D01*
X008077Y000751D01*
X008145Y000740D01*
X008180Y000740D01*
X008215Y000740D01*
X008283Y000751D01*
X008349Y000772D01*
X008411Y000804D01*
X008467Y000844D01*
X008516Y000893D01*
X008556Y000949D01*
X008588Y001011D01*
X008609Y001077D01*
X008620Y001145D01*
X008620Y001180D01*
X008180Y001180D01*
X008180Y000740D01*
X008180Y001180D01*
X008180Y001180D01*
X007740Y001180D01*
X007742Y001131D02*
X007620Y001131D01*
X007570Y000973D02*
X007792Y000973D01*
X008180Y000973D02*
X008180Y000973D01*
X008180Y001131D02*
X008180Y001131D01*
X008180Y001290D02*
X008180Y001290D01*
X008180Y001448D02*
X008180Y001448D01*
X008529Y001448D02*
X010326Y001448D01*
X010249Y001290D02*
X008607Y001290D01*
X008618Y001131D02*
X010240Y001131D01*
X010290Y000973D02*
X008568Y000973D01*
X008425Y000814D02*
X010424Y000814D01*
X010936Y000814D02*
X011424Y000814D01*
X011290Y000973D02*
X011070Y000973D01*
X011120Y001131D02*
X011240Y001131D01*
X011249Y001290D02*
X011111Y001290D01*
X011034Y001448D02*
X011326Y001448D01*
X012034Y001448D02*
X012326Y001448D01*
X012249Y001290D02*
X012111Y001290D01*
X012120Y001131D02*
X012240Y001131D01*
X012290Y000973D02*
X012070Y000973D01*
X011936Y000814D02*
X012424Y000814D01*
X012936Y000814D02*
X013435Y000814D01*
X013449Y000804D02*
X013393Y000844D01*
X013344Y000893D01*
X013304Y000949D01*
X013272Y001011D01*
X013251Y001077D01*
X013240Y001145D01*
X013240Y001180D01*
X013680Y001180D01*
X014120Y001180D01*
X014120Y001145D01*
X014109Y001077D01*
X014088Y001011D01*
X014056Y000949D01*
X014016Y000893D01*
X013967Y000844D01*
X013911Y000804D01*
X013849Y000772D01*
X013783Y000751D01*
X013715Y000740D01*
X013680Y000740D01*
X013680Y001180D01*
X013680Y001180D01*
X013680Y000740D01*
X013645Y000740D01*
X013577Y000751D01*
X013511Y000772D01*
X013449Y000804D01*
X013680Y000814D02*
X013680Y000814D01*
X013925Y000814D02*
X015924Y000814D01*
X015790Y000973D02*
X014068Y000973D01*
X014118Y001131D02*
X015740Y001131D01*
X015749Y001290D02*
X014107Y001290D01*
X014029Y001448D02*
X015826Y001448D01*
X016534Y001448D02*
X016826Y001448D01*
X016749Y001290D02*
X016611Y001290D01*
X016620Y001131D02*
X016740Y001131D01*
X016790Y000973D02*
X016570Y000973D01*
X016436Y000814D02*
X016924Y000814D01*
X018180Y001180D02*
X015180Y004180D01*
X014821Y004301D02*
X014106Y004301D01*
X014120Y004143D02*
X014802Y004143D01*
X014852Y003984D02*
X014075Y003984D01*
X013948Y003826D02*
X015048Y003826D01*
X015325Y003667D02*
X013440Y003667D01*
X013440Y003509D02*
X015484Y003509D01*
X015642Y003350D02*
X013440Y003350D01*
X013440Y003192D02*
X015801Y003192D01*
X015959Y003033D02*
X013440Y003033D01*
X013509Y002875D02*
X016118Y002875D01*
X016276Y002716D02*
X013558Y002716D01*
X013539Y002558D02*
X016435Y002558D01*
X016593Y002399D02*
X013434Y002399D01*
X012920Y003350D02*
X012718Y003350D01*
X012876Y003509D02*
X012920Y003509D01*
X011412Y003826D02*
X010948Y003826D01*
X010929Y003807D02*
X011053Y003931D01*
X011120Y004092D01*
X011120Y004268D01*
X011053Y004429D01*
X010929Y004553D01*
X010768Y004620D01*
X010592Y004620D01*
X010431Y004553D01*
X010307Y004429D01*
X010240Y004268D01*
X010240Y004092D01*
X010307Y003931D01*
X010431Y003807D01*
X010592Y003740D01*
X010768Y003740D01*
X010929Y003807D01*
X011075Y003984D02*
X011285Y003984D01*
X011240Y004143D02*
X011120Y004143D01*
X011106Y004301D02*
X011254Y004301D01*
X011337Y004460D02*
X011023Y004460D01*
X010772Y004618D02*
X011588Y004618D01*
X010588Y004618D02*
X008272Y004618D01*
X008268Y004620D02*
X008092Y004620D01*
X007931Y004553D01*
X007807Y004429D01*
X007740Y004268D01*
X007740Y004092D01*
X007807Y003931D01*
X007931Y003807D01*
X008092Y003740D01*
X008268Y003740D01*
X008429Y003807D01*
X008553Y003931D01*
X008620Y004092D01*
X008620Y004268D01*
X008553Y004429D01*
X008429Y004553D01*
X008268Y004620D01*
X008088Y004618D02*
X007936Y004618D01*
X007837Y004460D02*
X007827Y004460D01*
X007754Y004301D02*
X007669Y004301D01*
X007620Y004143D02*
X007740Y004143D01*
X007785Y003984D02*
X007575Y003984D01*
X007448Y003826D02*
X007912Y003826D01*
X008448Y003826D02*
X010412Y003826D01*
X010285Y003984D02*
X008575Y003984D01*
X008620Y004143D02*
X010240Y004143D01*
X010254Y004301D02*
X008606Y004301D01*
X008523Y004460D02*
X010337Y004460D01*
X007680Y004680D02*
X007180Y004180D01*
X006740Y004143D02*
X006620Y004143D01*
X006575Y003984D02*
X006785Y003984D01*
X006912Y003826D02*
X006448Y003826D01*
X006606Y004301D02*
X006754Y004301D01*
X006837Y004460D02*
X006523Y004460D01*
X006272Y004618D02*
X007088Y004618D01*
X007409Y004777D02*
X005940Y004777D01*
X005940Y004935D02*
X007420Y004935D01*
X007420Y005094D02*
X005940Y005094D01*
X005940Y005252D02*
X007420Y005252D01*
X007415Y005411D02*
X005940Y005411D01*
X005940Y005569D02*
X007317Y005569D01*
X007680Y005680D02*
X007680Y004680D01*
X006088Y004618D02*
X005940Y004618D01*
X005420Y004618D02*
X005272Y004618D01*
X005088Y004618D02*
X002520Y004618D01*
X002660Y004460D02*
X004837Y004460D01*
X004754Y004301D02*
X002725Y004301D01*
X002730Y004143D02*
X004740Y004143D01*
X004785Y003984D02*
X002694Y003984D01*
X002603Y003826D02*
X004912Y003826D01*
X005420Y004777D02*
X002554Y004777D01*
X002672Y004935D02*
X005420Y004935D01*
X005420Y005094D02*
X002723Y005094D01*
X002725Y005252D02*
X005420Y005252D01*
X005420Y005411D02*
X002680Y005411D01*
X002569Y005569D02*
X005420Y005569D01*
X005420Y005728D02*
X002505Y005728D01*
X002654Y005886D02*
X005420Y005886D01*
X005420Y006045D02*
X002719Y006045D01*
X002730Y006203D02*
X005420Y006203D01*
X005420Y006362D02*
X002700Y006362D01*
X002618Y006520D02*
X005420Y006520D01*
X005420Y006679D02*
X002440Y006679D01*
X002440Y006837D02*
X005469Y006837D01*
X005680Y006680D02*
X006680Y007680D01*
X006315Y007788D02*
X002440Y007788D01*
X002440Y007947D02*
X006412Y007947D01*
X006948Y007947D02*
X016379Y007947D01*
X016680Y008180D02*
X015680Y009180D01*
X002680Y009180D01*
X002180Y008680D01*
X002180Y006180D01*
X001630Y006203D02*
X000660Y006203D01*
X000660Y006045D02*
X001641Y006045D01*
X001706Y005886D02*
X000660Y005886D01*
X000660Y005728D02*
X001855Y005728D01*
X001791Y005569D02*
X000660Y005569D01*
X000660Y005411D02*
X001680Y005411D01*
X001635Y005252D02*
X000660Y005252D01*
X000660Y005094D02*
X001637Y005094D01*
X001688Y004935D02*
X000660Y004935D01*
X000660Y004777D02*
X001806Y004777D01*
X001840Y004618D02*
X000660Y004618D01*
X000660Y004460D02*
X001700Y004460D01*
X001635Y004301D02*
X000660Y004301D01*
X000660Y004143D02*
X001630Y004143D01*
X001666Y003984D02*
X000660Y003984D01*
X000660Y003826D02*
X001757Y003826D01*
X005680Y002680D02*
X007180Y001180D01*
X006740Y001131D02*
X006620Y001131D01*
X006620Y001092D02*
X006553Y000931D01*
X006429Y000807D01*
X006268Y000740D01*
X006092Y000740D01*
X005931Y000807D01*
X005807Y000931D01*
X005740Y001092D01*
X005740Y001268D01*
X005807Y001429D01*
X005931Y001553D01*
X006092Y001620D01*
X006268Y001620D01*
X006429Y001553D01*
X006553Y001429D01*
X006620Y001268D01*
X006620Y001092D01*
X006570Y000973D02*
X006790Y000973D01*
X006924Y000814D02*
X006436Y000814D01*
X005924Y000814D02*
X005436Y000814D01*
X005570Y000973D02*
X005790Y000973D01*
X005740Y001131D02*
X005620Y001131D01*
X005611Y001290D02*
X005749Y001290D01*
X005826Y001448D02*
X005534Y001448D01*
X005300Y001607D02*
X006060Y001607D01*
X006300Y001607D02*
X006386Y001607D01*
X006534Y001448D02*
X006544Y001448D01*
X006611Y001290D02*
X006703Y001290D01*
X006963Y001765D02*
X017227Y001765D01*
X017069Y001924D02*
X006804Y001924D01*
X006646Y002082D02*
X016910Y002082D01*
X016752Y002241D02*
X006487Y002241D01*
X005680Y002680D02*
X005680Y006680D01*
X005628Y006996D02*
X002440Y006996D01*
X002440Y007154D02*
X005786Y007154D01*
X005945Y007313D02*
X002440Y007313D01*
X002440Y007471D02*
X006103Y007471D01*
X006262Y007630D02*
X002440Y007630D01*
X001920Y007630D02*
X000660Y007630D01*
X000660Y007471D02*
X001920Y007471D01*
X001920Y007313D02*
X000660Y007313D01*
X000660Y007154D02*
X001920Y007154D01*
X001920Y006996D02*
X000660Y006996D01*
X000660Y006837D02*
X001920Y006837D01*
X001920Y006679D02*
X000660Y006679D01*
X000660Y006520D02*
X001742Y006520D01*
X001660Y006362D02*
X000660Y006362D01*
X000660Y007788D02*
X001920Y007788D01*
X001920Y007947D02*
X000660Y007947D01*
X000660Y008105D02*
X001920Y008105D01*
X001920Y008264D02*
X000660Y008264D01*
X000660Y008422D02*
X001920Y008422D01*
X001920Y008581D02*
X000660Y008581D01*
X000660Y008739D02*
X001923Y008739D01*
X002030Y008898D02*
X000660Y008898D01*
X000660Y009056D02*
X002188Y009056D01*
X002347Y009215D02*
X000660Y009215D01*
X000660Y009373D02*
X002505Y009373D01*
X002765Y008898D02*
X015595Y008898D01*
X015753Y008739D02*
X002607Y008739D01*
X002448Y008581D02*
X015912Y008581D01*
X016070Y008422D02*
X002440Y008422D01*
X000660Y009532D02*
X025192Y009532D01*
X025192Y009373D02*
X015855Y009373D01*
X016013Y009215D02*
X025192Y009215D01*
X025192Y009056D02*
X016172Y009056D01*
X016330Y008898D02*
X025192Y008898D01*
X025192Y008739D02*
X016489Y008739D01*
X016647Y008581D02*
X025192Y008581D01*
X025192Y008422D02*
X016973Y008422D01*
X016981Y007947D02*
X025192Y007947D01*
X025192Y007788D02*
X007045Y007788D01*
X007058Y007630D02*
X025192Y007630D01*
X025192Y007471D02*
X021424Y007471D01*
X021534Y007313D02*
X025192Y007313D01*
X025192Y007154D02*
X021558Y007154D01*
X021513Y006996D02*
X025192Y006996D01*
X021180Y007180D02*
X008680Y007180D01*
X008326Y007313D02*
X006781Y007313D01*
X006522Y007154D02*
X008302Y007154D01*
X008347Y006996D02*
X006363Y006996D01*
X007003Y007471D02*
X008436Y007471D01*
X008924Y007471D02*
X020936Y007471D01*
X016856Y005886D02*
X012940Y005886D01*
X012940Y005728D02*
X016802Y005728D01*
X016817Y005569D02*
X012940Y005569D01*
X012940Y005411D02*
X016915Y005411D01*
X017240Y005252D02*
X012940Y005252D01*
X012940Y005094D02*
X017399Y005094D01*
X017180Y005680D02*
X018180Y004680D01*
X018180Y004180D01*
X018606Y004301D02*
X018754Y004301D01*
X018740Y004143D02*
X018620Y004143D01*
X018575Y003984D02*
X018785Y003984D01*
X018912Y003826D02*
X018448Y003826D01*
X018523Y004460D02*
X018837Y004460D01*
X019088Y004618D02*
X018440Y004618D01*
X016837Y004460D02*
X016523Y004460D01*
X016606Y004301D02*
X016754Y004301D01*
X016740Y004143D02*
X016620Y004143D01*
X016575Y003984D02*
X016785Y003984D01*
X015912Y003826D02*
X015902Y003826D01*
X015785Y003984D02*
X015744Y003984D01*
X015740Y004143D02*
X015585Y004143D01*
X015539Y004301D02*
X015754Y004301D01*
X015837Y004460D02*
X015435Y004460D01*
X014925Y004460D02*
X014023Y004460D01*
X007356Y005886D02*
X005940Y005886D01*
X005940Y005728D02*
X007302Y005728D01*
X013034Y001448D02*
X013331Y001448D01*
X013253Y001290D02*
X013111Y001290D01*
X013120Y001131D02*
X013242Y001131D01*
X013292Y000973D02*
X013070Y000973D01*
X013680Y000973D02*
X013680Y000973D01*
X013680Y001131D02*
X013680Y001131D01*
X013680Y001290D02*
X013680Y001290D01*
X013680Y001448D02*
X013680Y001448D01*
X008180Y000814D02*
X008180Y000814D01*
X007935Y000814D02*
X007436Y000814D01*
X019180Y000814D02*
X019180Y000814D01*
X019425Y000814D02*
X025192Y000814D01*
X025192Y000973D02*
X019568Y000973D01*
X019618Y001131D02*
X025192Y001131D01*
X025192Y001290D02*
X019607Y001290D01*
X019529Y001448D02*
X025192Y001448D01*
X019180Y001448D02*
X019180Y001448D01*
X019180Y001290D02*
X019180Y001290D01*
X019180Y001131D02*
X019180Y001131D01*
X019180Y000973D02*
X019180Y000973D01*
D14*
X013180Y002680D03*
X011680Y002680D03*
X015180Y004180D03*
X013180Y004680D03*
X012680Y006180D03*
X008680Y006680D03*
X008680Y007180D03*
X006680Y007680D03*
X007680Y005680D03*
X016680Y008180D03*
X019680Y006680D03*
X021180Y007180D03*
X017180Y005680D03*
M02*
