G75*
%MOIN*%
%OFA0B0*%
%FSLAX24Y24*%
%IPPOS*%
%LPD*%
%AMOC8*
5,1,8,0,0,1.08239X$1,22.5*
%
%ADD10C,0.0030*%
%ADD11C,0.0060*%
%ADD12C,0.0080*%
%ADD13C,0.0200*%
D10*
X000792Y004243D02*
X000792Y004437D01*
X000888Y004340D02*
X000695Y004340D01*
X000990Y004340D02*
X001086Y004388D01*
X001135Y004388D01*
X001183Y004340D01*
X001183Y004243D01*
X001135Y004195D01*
X001038Y004195D01*
X000990Y004243D01*
X000990Y004340D02*
X000990Y004485D01*
X001183Y004485D01*
X001284Y004485D02*
X001284Y004292D01*
X001381Y004195D01*
X001478Y004292D01*
X001478Y004485D01*
X001429Y005195D02*
X001284Y005195D01*
X001284Y005485D01*
X001429Y005485D01*
X001478Y005437D01*
X001478Y005243D01*
X001429Y005195D01*
X001183Y005195D02*
X001183Y005485D01*
X000990Y005485D02*
X001183Y005195D01*
X000990Y005195D02*
X000990Y005485D01*
X000888Y005437D02*
X000840Y005485D01*
X000743Y005485D01*
X000695Y005437D01*
X000695Y005243D01*
X000743Y005195D01*
X000840Y005195D01*
X000888Y005243D01*
X000888Y005340D01*
X000792Y005340D01*
X000743Y006195D02*
X000840Y006195D01*
X000888Y006243D01*
X000888Y006437D01*
X000840Y006485D01*
X000743Y006485D01*
X000695Y006437D01*
X000695Y006243D01*
X000743Y006195D01*
X000990Y006243D02*
X001038Y006195D01*
X001135Y006195D01*
X001183Y006243D01*
X001183Y006485D01*
X001284Y006485D02*
X001478Y006485D01*
X001381Y006485D02*
X001381Y006195D01*
X000990Y006243D02*
X000990Y006485D01*
X023395Y003894D02*
X023395Y003797D01*
X023443Y003749D01*
X023492Y003749D01*
X023540Y003797D01*
X023540Y003894D01*
X023588Y003942D01*
X023637Y003942D01*
X023685Y003894D01*
X023685Y003797D01*
X023637Y003749D01*
X023588Y003749D01*
X023540Y003797D01*
X023540Y003894D02*
X023492Y003942D01*
X023443Y003942D01*
X023395Y003894D01*
X023492Y003647D02*
X023492Y003599D01*
X023492Y003454D01*
X023588Y003454D02*
X023588Y003647D01*
X023685Y003599D02*
X023395Y003599D01*
X023395Y003502D02*
X023685Y003502D01*
X023637Y003058D02*
X023540Y003058D01*
X023492Y003010D01*
X023492Y002865D01*
X023395Y002865D02*
X023685Y002865D01*
X023685Y003010D01*
X023637Y003058D01*
X023685Y002764D02*
X023685Y002618D01*
X023637Y002570D01*
X023588Y002618D01*
X023588Y002764D01*
X023540Y002764D02*
X023685Y002764D01*
X023540Y002764D02*
X023492Y002715D01*
X023492Y002618D01*
X023685Y002469D02*
X023685Y002275D01*
X023395Y002275D01*
X023875Y001978D02*
X024165Y001978D01*
X023972Y001881D02*
X023875Y001978D01*
X023972Y001881D02*
X023875Y001784D01*
X024165Y001784D01*
X024165Y001683D02*
X024068Y001586D01*
X024068Y001635D02*
X024068Y001490D01*
X024165Y001490D02*
X023875Y001490D01*
X023875Y001635D01*
X023923Y001683D01*
X024020Y001683D01*
X024068Y001635D01*
X024020Y001388D02*
X024020Y001195D01*
X024165Y001195D02*
X023875Y001195D01*
X023685Y001195D02*
X023685Y001292D01*
X023685Y001243D02*
X023395Y001243D01*
X023395Y001195D02*
X023395Y001292D01*
X023395Y001391D02*
X023395Y001537D01*
X023443Y001585D01*
X023637Y001585D01*
X023685Y001537D01*
X023685Y001391D01*
X023395Y001391D01*
X023875Y001388D02*
X024165Y001388D01*
X023685Y001686D02*
X023395Y001686D01*
X023395Y001880D01*
X023540Y001783D02*
X023540Y001686D01*
X023685Y001686D02*
X023685Y001880D01*
D11*
X004680Y001530D02*
X004680Y002280D01*
X004719Y002282D01*
X004758Y002288D01*
X004796Y002297D01*
X004833Y002310D01*
X004869Y002327D01*
X004902Y002347D01*
X004934Y002371D01*
X004963Y002397D01*
X004989Y002426D01*
X005013Y002458D01*
X005033Y002491D01*
X005050Y002527D01*
X005063Y002564D01*
X005072Y002602D01*
X005078Y002641D01*
X005080Y002680D01*
X005078Y002719D01*
X005072Y002758D01*
X005063Y002796D01*
X005050Y002833D01*
X005033Y002869D01*
X005013Y002902D01*
X004989Y002934D01*
X004963Y002963D01*
X004934Y002989D01*
X004902Y003013D01*
X004869Y003033D01*
X004833Y003050D01*
X004796Y003063D01*
X004758Y003072D01*
X004719Y003078D01*
X004680Y003080D01*
X004680Y003830D01*
X008680Y003830D01*
X008680Y001530D01*
X004680Y001530D01*
X010180Y001530D02*
X010180Y002280D01*
X010219Y002282D01*
X010258Y002288D01*
X010296Y002297D01*
X010333Y002310D01*
X010369Y002327D01*
X010402Y002347D01*
X010434Y002371D01*
X010463Y002397D01*
X010489Y002426D01*
X010513Y002458D01*
X010533Y002491D01*
X010550Y002527D01*
X010563Y002564D01*
X010572Y002602D01*
X010578Y002641D01*
X010580Y002680D01*
X010578Y002719D01*
X010572Y002758D01*
X010563Y002796D01*
X010550Y002833D01*
X010533Y002869D01*
X010513Y002902D01*
X010489Y002934D01*
X010463Y002963D01*
X010434Y002989D01*
X010402Y003013D01*
X010369Y003033D01*
X010333Y003050D01*
X010296Y003063D01*
X010258Y003072D01*
X010219Y003078D01*
X010180Y003080D01*
X010180Y003830D01*
X014180Y003830D01*
X014180Y001530D01*
X010180Y001530D01*
X015680Y001530D02*
X015680Y002280D01*
X015719Y002282D01*
X015758Y002288D01*
X015796Y002297D01*
X015833Y002310D01*
X015869Y002327D01*
X015902Y002347D01*
X015934Y002371D01*
X015963Y002397D01*
X015989Y002426D01*
X016013Y002458D01*
X016033Y002491D01*
X016050Y002527D01*
X016063Y002564D01*
X016072Y002602D01*
X016078Y002641D01*
X016080Y002680D01*
X016078Y002719D01*
X016072Y002758D01*
X016063Y002796D01*
X016050Y002833D01*
X016033Y002869D01*
X016013Y002902D01*
X015989Y002934D01*
X015963Y002963D01*
X015934Y002989D01*
X015902Y003013D01*
X015869Y003033D01*
X015833Y003050D01*
X015796Y003063D01*
X015758Y003072D01*
X015719Y003078D01*
X015680Y003080D01*
X015680Y003830D01*
X019680Y003830D01*
X019680Y001530D01*
X015680Y001530D01*
D12*
X021980Y004300D02*
X021980Y006030D01*
X024380Y006030D01*
X024380Y004300D01*
X021980Y004300D01*
X002680Y004430D02*
X002680Y003930D01*
X002430Y003680D01*
X001930Y003680D01*
X001680Y003930D01*
X001680Y004430D01*
X001930Y004680D01*
X001680Y004930D01*
X001680Y005430D01*
X001930Y005680D01*
X001680Y005930D01*
X001680Y006430D01*
X001930Y006680D01*
X002430Y006680D01*
X002680Y006430D01*
X002680Y005930D01*
X002430Y005680D01*
X002680Y005430D01*
X002680Y004930D01*
X002430Y004680D01*
X002680Y004430D01*
D13*
X024505Y006130D03*
M02*
