%
M48
M72
T01C0.0236
T02C0.0320
T03C0.0354
T04C0.0400
%
T01
X11680Y2680
X13180Y2680
X15180Y4180
X13180Y4680
X12680Y6180
X8680Y6680
X8680Y7180
X6680Y7680
X7680Y5680
X16680Y8180
X19680Y6680
X21180Y7180
X17180Y5680
T02
X5180Y1180
X6180Y1180
X7180Y1180
X8180Y1180
X10680Y1180
X11680Y1180
X12680Y1180
X13680Y1180
X16180Y1180
X17180Y1180
X18180Y1180
X19180Y1180
X19180Y4180
X18180Y4180
X17180Y4180
X16180Y4180
X13680Y4180
X12680Y4180
X11680Y4180
X10680Y4180
X8180Y4180
X7180Y4180
X6180Y4180
X5180Y4180
T03
X22680Y4770
X23680Y4770
X23680Y5600
X22680Y5600
T04
X2180Y5180
X2180Y6180
X2180Y4180
M30
